<svg width="212" height="69" viewBox="0 0 212 69" fill="none" xmlns="http://www.w3.org/2000/svg">
<path d="M211.997 59.6514C211.997 64.7997 207.813 68.9721 202.654 68.9721H9.97915C4.82039 68.9721 0.636414 64.7966 0.636414 59.6514V9.32073C0.636414 4.17238 4.82039 0 9.97915 0H202.657C207.816 0 212 4.17238 212 9.32073V59.6514H211.997Z" fill="black"/>
<path d="M16.4895 13.2783V36.6323V59.9862L40.0995 36.6323L16.4895 13.2783Z" fill="url(#paint0_linear)"/>
<path d="M46.4427 30.3596L36.9132 24.8702L16.4902 13.1079V13.2785L40.1003 36.6324L46.4427 30.3596Z" fill="url(#paint1_linear)"/>
<path d="M16.4895 59.986V60.1566L36.9125 48.3943L46.4419 42.9049L40.0995 36.6321L16.4895 59.986Z" fill="url(#paint2_linear)"/>
<path d="M46.4418 30.3596L40.0994 36.6324L46.4418 42.9052L57.3322 36.6324L46.4418 30.3596Z" fill="url(#paint3_linear)"/>
<path d="M165.128 45.7637C164.242 45.7637 163.432 45.5995 162.701 45.2741C161.967 44.9488 161.353 44.4466 160.856 43.7675H160.707C160.805 44.5603 160.856 45.312 160.856 46.0227V51.6132H158.795V31.9326H160.473L160.758 33.793H160.856C161.388 33.0476 162.005 32.5138 162.707 32.1822C163.41 31.8505 164.22 31.6863 165.128 31.6863C166.936 31.6863 168.328 32.3022 169.309 33.534C170.29 34.7658 170.781 36.4935 170.781 38.7139C170.781 40.9438 170.281 42.6778 169.284 43.9128C168.287 45.1446 166.901 45.7637 165.128 45.7637ZM164.831 33.4298C163.438 33.4298 162.432 33.8151 161.812 34.5826C161.191 35.3501 160.872 36.5756 160.856 38.2528V38.7108C160.856 40.6185 161.175 41.9861 161.812 42.8073C162.451 43.6286 163.473 44.0392 164.878 44.0392C166.056 44.0392 166.977 43.5654 167.644 42.6147C168.312 41.664 168.645 40.3564 168.645 38.6855C168.645 36.9926 168.312 35.6913 167.644 34.7879C166.98 33.8846 166.04 33.4298 164.831 33.4298Z" fill="#F9F9F9"/>
<path d="M175.557 45.5141H173.493V26.2314H175.557V45.5141Z" fill="#F9F9F9"/>
<path d="M187.413 45.514L187.001 43.581H186.903C186.223 44.4338 185.545 45.0087 184.871 45.3087C184.197 45.6119 183.352 45.7604 182.342 45.7604C180.991 45.7604 179.934 45.413 179.168 44.7181C178.402 44.0232 178.019 43.0378 178.019 41.7554C178.019 39.0138 180.219 37.5736 184.615 37.4409L186.925 37.3651V36.5218C186.925 35.4542 186.694 34.6677 186.235 34.1624C185.776 33.6539 185.039 33.4012 184.029 33.4012C182.893 33.4012 181.611 33.7486 180.178 34.4435L179.545 32.8706C180.216 32.5073 180.95 32.2231 181.751 32.0146C182.548 31.8093 183.352 31.7051 184.156 31.7051C185.78 31.7051 186.982 32.0651 187.764 32.7821C188.546 33.5023 188.938 34.6551 188.938 36.2407V45.5109H187.413V45.514ZM182.754 44.0643C184.036 44.0643 185.045 43.7137 185.78 43.0125C186.511 42.3113 186.878 41.3259 186.878 40.0625V38.837L184.814 38.9222C183.175 38.9823 181.994 39.2349 181.266 39.6866C180.542 40.1351 180.181 40.8363 180.181 41.787C180.181 42.5292 180.406 43.0978 180.858 43.4831C181.311 43.8716 181.944 44.0643 182.754 44.0643Z" fill="#F9F9F9"/>
<path d="M190.138 31.9329H192.347L195.328 39.6807C195.983 41.4494 196.388 42.7254 196.547 43.5119H196.645C196.752 43.0887 196.977 42.3685 197.322 41.3483C197.667 40.3281 198.79 37.1918 200.696 31.936H202.908L197.056 47.4032C196.477 48.9319 195.8 50.0153 195.024 50.6564C194.249 51.2976 193.299 51.6166 192.173 51.6166C191.543 51.6166 190.923 51.5471 190.309 51.405V49.7563C190.764 49.8542 191.274 49.9047 191.837 49.9047C193.255 49.9047 194.265 49.1119 194.869 47.5232L195.626 45.5902L190.138 31.9329Z" fill="#F9F9F9"/>
<path d="M126.925 33.1928C127.58 33.7329 128.947 34.87 128.947 37.0304C128.947 39.1308 127.751 40.1289 126.555 41.0638C126.184 41.4333 125.757 41.8313 125.757 42.4567C125.757 43.0789 126.184 43.4232 126.498 43.679L127.523 44.4718C128.776 45.5236 129.913 46.4901 129.913 48.4515C129.913 51.1204 127.321 53.821 122.424 53.821C118.294 53.821 116.3 51.8627 116.3 49.756C116.3 48.7326 116.81 47.286 118.494 46.2911C120.256 45.2109 122.652 45.0719 123.934 44.9835C123.535 44.4718 123.08 43.9317 123.08 43.0536C123.08 42.5704 123.222 42.2861 123.364 41.945C123.051 41.9734 122.738 42.0019 122.453 42.0019C119.434 42.0019 117.725 39.7562 117.725 37.5421C117.725 36.2344 118.323 34.7847 119.548 33.7361C121.171 32.4 123.108 32.1726 124.646 32.1726H130.511L128.688 33.196H126.925V33.1928ZM124.903 45.8078C124.675 45.7794 124.532 45.7794 124.247 45.7794C123.991 45.7794 122.45 45.8363 121.257 46.2374C120.63 46.4617 118.807 47.1439 118.807 49.1622C118.807 51.1773 120.772 52.6302 123.82 52.6302C126.551 52.6302 128.007 51.3194 128.007 49.5601C128.007 48.1072 127.067 47.3429 124.903 45.8078ZM125.729 40.41C126.384 39.7562 126.438 38.8465 126.438 38.3348C126.438 36.2913 125.213 33.1075 122.852 33.1075C122.111 33.1075 121.314 33.4771 120.858 34.0456C120.374 34.6426 120.231 35.4069 120.231 36.1492C120.231 38.0537 121.342 41.2059 123.792 41.2059C124.504 41.2059 125.273 40.8648 125.729 40.41Z" fill="#F9F9F9"/>
<path d="M108.997 45.3528C104.477 45.3528 102.059 41.8342 102.059 38.6567C102.059 34.9392 105.101 31.7649 109.424 31.7649C113.601 31.7649 116.219 35.0245 116.219 38.4577C116.219 41.8058 113.633 45.3528 108.997 45.3528ZM112.551 43.0565C113.234 42.1469 113.405 41.013 113.405 39.9075C113.405 37.4091 112.212 32.6461 108.686 32.6461C107.75 32.6461 106.81 33.0157 106.129 33.6126C105.021 34.6044 104.819 35.852 104.819 37.0743C104.819 39.8791 106.211 44.5031 109.655 44.5031C110.759 44.5 111.896 43.963 112.551 43.0565Z" fill="#F9F9F9"/>
<path d="M93.5827 45.3528C89.0601 45.3528 86.6453 41.8342 86.6453 38.6567C86.6453 34.9392 89.6899 31.7649 94.01 31.7649C98.1877 31.7649 100.805 35.0245 100.805 38.4577C100.805 41.8058 98.2193 45.3528 93.5827 45.3528ZM97.1369 43.0565C97.8205 42.1469 97.9914 41.013 97.9914 39.9075C97.9914 37.4091 96.7951 32.6461 93.2694 32.6461C92.3326 32.6461 91.3927 33.0157 90.7122 33.6126C89.6045 34.6044 89.4051 35.852 89.4051 37.0743C89.4051 39.8791 90.7977 44.5031 94.241 44.5031C95.3488 44.5 96.4849 43.963 97.1369 43.0565Z" fill="#F9F9F9"/>
<path d="M84.4748 44.9107L80.3858 45.8519C78.7274 46.1077 77.2399 46.3351 75.6701 46.3351C67.78 46.3351 64.7797 40.5456 64.7797 36.01C64.7797 30.4795 69.0397 25.3469 76.3284 25.3469C77.8728 25.3469 79.3572 25.5743 80.7023 25.947C82.8449 26.5472 83.8481 27.2862 84.4748 27.7158L82.1011 29.9678L81.101 30.1952L81.8163 29.055C80.8447 28.1106 79.0692 26.3734 75.6986 26.3734C71.1823 26.3734 67.78 29.7972 67.78 34.7877C67.78 40.1476 71.6697 45.1949 77.8982 45.1949C79.7306 45.1949 80.6706 44.8254 81.5283 44.4811V39.8918L77.2114 40.1192L79.4964 38.8906H85.5572L84.8134 39.6044C84.6109 39.7749 84.5856 39.835 84.5254 40.0592C84.4969 40.315 84.4685 41.1457 84.4685 41.43V44.9107H84.4748Z" fill="#F9F9F9"/>
<path d="M135.961 44.0893C135.017 44.004 134.818 43.8335 134.818 42.7185V42.4058V26.5786C134.824 26.5186 134.827 26.4554 134.834 26.3954C134.948 25.3973 135.236 25.2267 136.122 24.7119H132.033L129.887 25.7384H132.074V25.7511L132.071 25.7416V42.4058V43.347C132.071 43.9156 131.957 44.004 131.299 44.8568H136.359L137.416 44.2314C136.935 44.1714 136.448 44.1461 135.961 44.0893Z" fill="#F9F9F9"/>
<path d="M147.592 44.3513C147.282 44.5219 146.969 44.7209 146.659 44.8598C145.719 45.2831 144.757 45.3968 143.902 45.3968C142.997 45.3968 141.576 45.3399 140.126 44.2913C138.113 42.8731 137.234 40.4379 137.234 38.3154C137.234 33.9251 140.81 31.7742 143.734 31.7742C144.757 31.7742 145.807 32.03 146.659 32.567C148.076 33.4987 148.447 34.7179 148.643 35.3685L141.975 38.0596L139.788 38.2301C140.497 41.8277 142.937 43.9218 145.636 43.9218C147.083 43.9218 148.133 43.4132 149.099 42.9331L147.592 44.3513ZM144.927 35.9086C145.465 35.7097 145.75 35.5423 145.75 35.1443C145.75 34.0135 144.475 32.7091 142.94 32.7091C141.804 32.7091 139.674 33.5871 139.674 36.6446C139.674 37.1247 139.731 37.6363 139.759 38.148L144.927 35.9086Z" fill="#F9F9F9"/>
<path d="M150.332 31.9678V33.8376H150.104V31.9678H149.484V31.7751H150.949V31.9678H150.332Z" fill="#F9F9F9"/>
<path d="M152.887 33.8367V31.951H152.877L152.301 33.8367H152.124L151.542 31.951H151.535V33.8367H151.33V31.7742H151.684L152.209 33.4419H152.216L152.735 31.7742H153.092V33.8367H152.887Z" fill="#F9F9F9"/>
<path d="M70.4542 19.7943H69.0332C69.0332 19.5985 68.8971 19.0489 68.6281 18.1392H66.5773C66.2987 19.0331 66.1595 19.5858 66.1595 19.7943H64.8239C64.8239 19.6806 65.1689 18.733 65.862 16.9611C66.5519 15.186 66.9001 14.2101 66.9001 14.03H68.5775C68.5775 14.1974 68.8908 15.1608 69.5174 16.9201C70.1409 18.6762 70.4542 19.6332 70.4542 19.7943ZM68.4034 17.2928C67.897 15.7704 67.6438 14.946 67.6438 14.8228H67.5742C67.5742 14.9365 67.3115 15.7609 66.7893 17.2928H68.4034Z" fill="#F9F9FA"/>
<path d="M76.1795 19.7943H75.0844C75.0844 19.6742 74.6762 19.0331 73.8628 17.877C73.0114 16.6579 72.524 15.824 72.4069 15.3755H72.3373C72.4101 16.023 72.4481 16.6073 72.4481 17.1285C72.4481 17.8581 72.4702 18.7456 72.5114 19.7943H71.4195C71.4638 18.8783 71.486 17.8739 71.486 16.7779C71.486 15.7008 71.4638 14.7849 71.4195 14.0268H72.7392C72.7392 14.1848 73.1032 14.807 73.8343 15.8998C74.6129 17.059 75.0591 17.8455 75.1762 18.2592H75.2427C75.173 17.6023 75.1351 17.0116 75.1351 16.4873C75.1351 15.6882 75.1129 14.867 75.0718 14.0237H76.1826C76.1415 14.7565 76.1193 15.6724 76.1193 16.7747C76.1162 17.8865 76.1383 18.8941 76.1795 19.7943Z" fill="#F9F9FA"/>
<path d="M82.6132 16.7114C82.6132 17.5484 82.3441 18.2812 81.8061 18.9066C81.2681 19.532 80.5117 19.8447 79.5432 19.8447C79.1065 19.8447 78.502 19.8257 77.7329 19.791C77.7709 18.9003 77.7899 17.8927 77.7899 16.7746C77.7899 15.7007 77.7709 14.7848 77.7329 14.0236H78.5083C78.6349 14.0236 78.8248 14.0204 79.078 14.0109C79.328 14.0014 79.4926 13.9983 79.5717 13.9983C80.6414 13.9983 81.4137 14.2636 81.8947 14.7942C82.3726 15.328 82.6132 15.966 82.6132 16.7114ZM81.401 16.9009C81.401 16.3356 81.2364 15.8555 80.9041 15.467C80.5718 15.0785 80.0654 14.8858 79.385 14.8858C79.2584 14.8858 79.0843 14.8985 78.8628 14.9269C78.8913 15.5175 78.9071 16.1334 78.9071 16.7778C78.9071 17.4821 78.9229 18.1833 78.9514 18.8782C79.1445 18.9161 79.3375 18.935 79.5274 18.935C80.1635 18.935 80.6351 18.7392 80.9421 18.3444C81.2459 17.9496 81.401 17.4695 81.401 16.9009Z" fill="#F9F9FA"/>
<path d="M88.5441 19.7944H87.2307C86.8857 18.7489 86.6231 18.1046 86.4395 17.8582C86.2559 17.6119 85.9616 17.4918 85.5502 17.4918C85.3793 17.4918 85.2147 17.495 85.0564 17.495C85.0564 18.253 85.0691 19.0206 85.0976 19.7944H83.8633C83.9013 18.9037 83.9203 17.8961 83.9203 16.778C83.9203 15.7041 83.9013 14.7882 83.8633 14.027H84.6324C84.721 14.027 84.9077 14.0238 85.1894 14.0143C85.471 14.0049 85.7337 14.0017 85.9743 14.0017C87.332 14.0017 88.0124 14.466 88.0124 15.3914C88.0124 16.1274 87.6232 16.6391 86.8509 16.9296V16.996C87.1484 17.0781 87.4111 17.3118 87.6358 17.694C87.8605 18.073 88.1644 18.7742 88.5441 19.7944ZM86.8794 15.7199C86.8794 15.1325 86.4996 14.8387 85.7432 14.8387C85.4647 14.8387 85.2179 14.8577 85.0058 14.9019C85.0375 15.3599 85.0533 15.9568 85.0533 16.6896C85.2147 16.6959 85.3539 16.6991 85.4647 16.6991C86.411 16.6991 86.8794 16.3706 86.8794 15.7199Z" fill="#F9F9FA"/>
<path d="M94.9093 16.8033C94.9093 17.7098 94.6307 18.4615 94.0737 19.0584C93.5167 19.6554 92.8299 19.9523 92.0102 19.9523C91.2285 19.9523 90.5734 19.6775 90.048 19.1311C89.5226 18.5847 89.2568 17.8866 89.2568 17.0433C89.2568 16.1368 89.5353 15.3851 90.0923 14.7881C90.6493 14.1912 91.3361 13.8943 92.1558 13.8943C92.9375 13.8943 93.5895 14.1659 94.118 14.7123C94.6434 15.2619 94.9093 15.9568 94.9093 16.8033ZM93.6844 16.9328C93.6844 16.3169 93.5262 15.8147 93.2097 15.4325C92.8932 15.0503 92.5008 14.8576 92.0387 14.8576C91.6051 14.8576 91.2412 15.0503 90.9373 15.4388C90.6367 15.8241 90.4847 16.3137 90.4847 16.9043C90.4847 17.5171 90.643 18.0193 90.9626 18.4046C91.2791 18.79 91.6716 18.9826 92.1337 18.9826C92.5641 18.9826 92.9312 18.79 93.235 18.4015C93.5325 18.0067 93.6844 17.5202 93.6844 16.9328Z" fill="#F9F9FA"/>
<path d="M97.4192 19.7943H96.1627C96.2007 18.8783 96.2197 17.8739 96.2197 16.7779C96.2197 15.7009 96.2007 14.7849 96.1627 14.0269H97.4192C97.3812 14.7723 97.3622 15.6882 97.3622 16.7779C97.3622 17.8897 97.3812 18.8973 97.4192 19.7943Z" fill="#F9F9FA"/>
<path d="M103.853 16.7114C103.853 17.5484 103.584 18.2812 103.046 18.9066C102.508 19.532 101.752 19.8447 100.783 19.8447C100.347 19.8447 99.7421 19.8257 98.973 19.791C99.011 18.9003 99.03 17.8927 99.03 16.7746C99.03 15.7007 99.011 14.7848 98.973 14.0236H99.7484C99.875 14.0236 100.065 14.0204 100.318 14.0109C100.568 14.0014 100.733 13.9983 100.812 13.9983C101.882 13.9983 102.654 14.2636 103.135 14.7942C103.613 15.328 103.853 15.966 103.853 16.7114ZM102.641 16.9009C102.641 16.3356 102.477 15.8555 102.144 15.467C101.812 15.0785 101.306 14.8858 100.625 14.8858C100.498 14.8858 100.324 14.8985 100.1 14.9269C100.128 15.5175 100.144 16.1334 100.144 16.7778C100.144 17.4821 100.16 18.1833 100.188 18.8782C100.381 18.9161 100.574 18.935 100.764 18.935C101.4 18.935 101.872 18.7392 102.179 18.3444C102.486 17.9496 102.641 17.4695 102.641 16.9009Z" fill="#F9F9FA"/>
<path d="M112.389 19.7943H110.968C110.968 19.5985 110.832 19.0489 110.563 18.1392H108.512C108.234 19.0331 108.095 19.5858 108.095 19.7943H106.759C106.759 19.6806 107.104 18.733 107.794 16.9611C108.484 15.186 108.829 14.2101 108.829 14.03H110.506C110.506 14.1974 110.82 15.1608 111.446 16.9201C112.076 18.6762 112.389 19.6332 112.389 19.7943ZM110.339 17.2928C109.832 15.7704 109.579 14.946 109.579 14.8228H109.509C109.509 14.9365 109.247 15.7609 108.724 17.2928H110.339Z" fill="#F9F9FA"/>
<path d="M117.567 15.5365C117.567 16.2408 117.304 16.762 116.779 17.0999C116.253 17.4379 115.608 17.6053 114.845 17.6053C114.706 17.6053 114.607 17.6021 114.547 17.5958C114.547 18.1517 114.563 18.8813 114.595 19.791H113.348C113.386 18.9382 113.405 17.9338 113.405 16.7746C113.405 15.7134 113.386 14.7942 113.348 14.0236H114.12C114.231 14.0236 114.44 14.0204 114.75 14.0109C115.06 14.0014 115.329 13.9983 115.557 13.9983C116.12 13.9983 116.595 14.1246 116.981 14.3805C117.374 14.6363 117.567 15.0216 117.567 15.5365ZM116.421 15.7797C116.421 15.148 116 14.8321 115.161 14.8321C114.952 14.8321 114.728 14.8542 114.497 14.8985C114.528 15.4575 114.544 16.0892 114.544 16.7936C114.617 16.7999 114.706 16.803 114.801 16.803C115.88 16.803 116.421 16.4619 116.421 15.7797Z" fill="#F9F9FA"/>
<path d="M122.89 15.5365C122.89 16.2408 122.627 16.762 122.102 17.0999C121.577 17.4379 120.931 17.6053 120.168 17.6053C120.029 17.6053 119.931 17.6021 119.871 17.5958C119.871 18.1517 119.887 18.8813 119.918 19.791H118.671C118.709 18.9382 118.728 17.9338 118.728 16.7746C118.728 15.7134 118.709 14.7942 118.671 14.0236H119.443C119.554 14.0236 119.763 14.0204 120.073 14.0109C120.383 14.0014 120.652 13.9983 120.88 13.9983C121.444 13.9983 121.918 14.1246 122.305 14.3805C122.697 14.6363 122.89 15.0216 122.89 15.5365ZM121.744 15.7797C121.744 15.148 121.323 14.8321 120.485 14.8321C120.276 14.8321 120.051 14.8542 119.82 14.8985C119.852 15.4575 119.868 16.0892 119.868 16.7936C119.94 16.7999 120.026 16.803 120.124 16.803C121.206 16.803 121.744 16.4619 121.744 15.7797Z" fill="#F9F9FA"/>
<path d="M131.593 16.8033C131.593 17.7098 131.315 18.4615 130.758 19.0584C130.201 19.6554 129.514 19.9523 128.694 19.9523C127.912 19.9523 127.257 19.6775 126.732 19.1311C126.207 18.5847 125.941 17.8866 125.941 17.0433C125.941 16.1368 126.219 15.3851 126.776 14.7881C127.333 14.1912 128.02 13.8943 128.84 13.8943C129.621 13.8943 130.277 14.1659 130.802 14.7123C131.331 15.2619 131.593 15.9568 131.593 16.8033ZM130.368 16.9328C130.368 16.3169 130.21 15.8147 129.894 15.4325C129.577 15.0503 129.185 14.8576 128.723 14.8576C128.289 14.8576 127.925 15.0503 127.621 15.4388C127.321 15.8241 127.169 16.3105 127.169 16.9012C127.169 17.5139 127.327 18.0161 127.647 18.4015C127.963 18.7868 128.356 18.9795 128.818 18.9795C129.251 18.9795 129.615 18.7868 129.919 18.3983C130.22 18.0066 130.368 17.5202 130.368 16.9328Z" fill="#F9F9FA"/>
<path d="M137.613 19.7943H136.518C136.518 19.6742 136.11 19.0331 135.296 17.877C134.445 16.6579 133.957 15.824 133.84 15.3755H133.771C133.844 16.023 133.882 16.6073 133.882 17.1285C133.882 17.8581 133.904 18.7456 133.945 19.7943H132.853C132.897 18.8783 132.919 17.8739 132.919 16.7779C132.919 15.7008 132.897 14.7849 132.853 14.0268H134.173C134.173 14.1848 134.54 14.807 135.268 15.8998C136.046 17.059 136.493 17.8455 136.61 18.2592H136.676C136.606 17.6023 136.569 17.0116 136.569 16.4873C136.569 15.6882 136.546 14.867 136.505 14.0237H137.616C137.575 14.7565 137.553 15.6724 137.553 16.7747C137.55 17.8865 137.569 18.8941 137.613 19.7943Z" fill="#F9F9FA"/>
<defs>
<linearGradient id="paint0_linear" x1="28.2951" y1="13.2786" x2="28.2951" y2="59.9862" gradientUnits="userSpaceOnUse">
<stop stop-color="#257CB0"/>
<stop offset="0.2863" stop-color="#4A93B5"/>
<stop offset="0.767" stop-color="#78BCBB"/>
<stop offset="1" stop-color="#89CFBD"/>
</linearGradient>
<linearGradient id="paint1_linear" x1="16.4912" y1="24.8708" x2="46.4421" y2="24.8708" gradientUnits="userSpaceOnUse">
<stop stop-color="#52C1AD"/>
<stop offset="1" stop-color="#DEE89A"/>
</linearGradient>
<linearGradient id="paint2_linear" x1="31.4657" y1="36.6327" x2="31.4657" y2="60.1559" gradientUnits="userSpaceOnUse">
<stop stop-color="#EC413D"/>
<stop offset="0.1668" stop-color="#DA4452"/>
<stop offset="0.5748" stop-color="#B0487A"/>
<stop offset="0.8619" stop-color="#954A92"/>
<stop offset="1" stop-color="#8A4A9D"/>
</linearGradient>
<linearGradient id="paint3_linear" x1="48.7161" y1="30.3599" x2="48.7161" y2="42.9049" gradientUnits="userSpaceOnUse">
<stop stop-color="#F58879"/>
<stop offset="0.1194" stop-color="#F69079"/>
<stop offset="0.7128" stop-color="#FCB877"/>
<stop offset="1" stop-color="#FEC874"/>
</linearGradient>
</defs>
</svg>
