<svg width="212" height="69" viewBox="0 0 212 69" fill="none" xmlns="http://www.w3.org/2000/svg">
<path d="M211.364 59.6755C211.364 64.8259 207.181 69 202.023 69H9.34335C4.1825 69 0 64.8228 0 59.6755V9.3245C0 4.17406 4.1825 0 9.34335 0H202.023C207.181 0 211.364 4.17406 211.364 9.3245V59.6755Z" fill="black"/>
<path d="M55.1167 45.6082C53.999 48.0823 53.4608 49.1882 52.0233 51.3748C50.0128 54.4303 47.1791 58.2315 43.671 58.2631C40.5523 58.2915 39.7513 56.2377 35.5181 56.2598C31.285 56.2819 30.4016 58.2979 27.2798 58.2694C23.7685 58.2378 21.0836 54.8032 19.0731 51.7477C13.4531 43.2068 12.8642 33.1871 16.3312 27.8598C18.7945 24.0744 22.6793 21.8562 26.3363 21.8562C30.0565 21.8562 32.3963 23.8942 35.4738 23.8942C38.4563 23.8942 40.2769 21.853 44.5797 21.853C47.8313 21.853 51.2761 23.6193 53.7331 26.6748C45.6847 31.0796 46.9891 42.5432 55.1167 45.6082Z" fill="white"/>
<path d="M41.3119 18.4469C42.8728 16.4436 44.0602 13.6187 43.6327 10.7275C41.0808 10.9013 38.0919 12.5255 36.3506 14.6362C34.7675 16.5542 33.463 19.4011 33.9696 22.1659C36.7527 22.2512 39.637 20.5924 41.3119 18.4469Z" fill="white"/>
<path d="M72.2422 27.7332L64.1906 51.3872H67.8792L70.2823 44.1229H78.0774L80.5502 51.3872H84.3401L76.2537 27.7332H72.2422ZM74.1514 31.6228C74.4237 32.6782 74.7181 33.7746 75.0949 34.9596L77.2637 41.2317H71.0865L73.2268 34.9185C73.5561 33.8947 73.8632 32.7888 74.1514 31.6228Z" fill="white"/>
<path d="M94.7599 33.8665C92.3188 33.8665 90.3621 34.8081 89.0576 36.5965L88.9152 34.2425H85.635L85.654 34.5426C85.749 36.0088 85.7902 37.6203 85.7902 39.9364V58.1683H89.3774V49.659C90.4887 50.9861 92.265 51.7603 94.2786 51.7603C96.3746 51.7603 98.306 50.9419 99.7118 49.4536C101.282 47.7979 102.112 45.4154 102.112 42.5685C102.112 40.0533 101.393 37.8794 100.028 36.2837C98.6923 34.7259 96.8211 33.8665 94.7599 33.8665ZM93.8639 36.8303C97.0617 36.8303 98.4928 39.7847 98.4928 42.7138C98.4928 46.4898 96.6659 48.8375 93.7277 48.8375C91.7204 48.8375 89.9853 47.4756 89.5041 45.5165C89.4217 45.2132 89.3774 44.8119 89.3774 44.3569V41.4784C89.3774 41.2193 89.4344 40.9001 89.4914 40.5936C89.5104 40.4957 89.5294 40.3977 89.5421 40.3029C90.0771 38.2585 91.8534 36.8303 93.8639 36.8303Z" fill="white"/>
<path d="M113.225 33.8665C110.784 33.8665 108.827 34.8081 107.522 36.5965L107.38 34.2425H104.1L104.119 34.5426C104.217 36.0088 104.258 37.6203 104.258 39.9364V58.1683H107.845V49.659C108.957 50.9861 110.733 51.7603 112.747 51.7603C114.843 51.7603 116.774 50.9419 118.183 49.4536C119.75 47.7979 120.58 45.4154 120.58 42.5685C120.58 40.0533 119.858 37.8794 118.496 36.2837C117.16 34.7259 115.289 33.8665 113.225 33.8665ZM112.332 36.8303C115.526 36.8303 116.958 39.7847 116.958 42.7138C116.958 46.4898 115.131 48.8375 112.196 48.8375C110.191 48.8375 108.453 47.4756 107.972 45.5165C107.89 45.2132 107.845 44.8119 107.845 44.3569V41.4784C107.845 41.2161 107.902 40.9001 107.959 40.5905C107.978 40.4957 107.994 40.3977 108.01 40.3029C108.542 38.2585 110.318 36.8303 112.332 36.8303Z" fill="white"/>
<path d="M136.36 37.7558C133.013 36.4634 131.94 35.446 131.94 33.5659C131.94 31.9828 133.2 30.3872 136.014 30.3872C138.338 30.3872 139.823 31.1929 140.225 31.4425L140.529 31.6289L141.543 28.643L141.343 28.526C140.741 28.1753 139.029 27.3569 136.122 27.3569C131.55 27.3569 128.355 30.0522 128.355 33.9071C128.355 37.0164 130.356 39.1903 134.65 40.7481C137.692 41.8824 138.826 43.0452 138.826 45.039C138.826 47.2951 137.078 48.6949 134.267 48.6949C132.437 48.6949 130.553 48.1609 129.1 47.2319L128.789 47.0329L127.827 50.0884L128.004 50.2053C129.359 51.109 131.905 51.7599 134.064 51.7599C140.229 51.7599 142.413 48.0092 142.413 44.7989C142.407 41.4906 140.656 39.4494 136.36 37.7558Z" fill="white"/>
<path d="M148.863 30.1663L145.346 31.269V34.2424H142.771V37.102H145.346V45.864C145.346 47.9811 145.751 49.4662 146.587 50.4046C147.388 51.2799 148.619 51.7633 150.057 51.7633C151.412 51.7633 152.374 51.4947 152.827 51.3368L153.027 51.2672L152.856 48.4013L152.511 48.5056C152.058 48.6446 151.592 48.6983 150.842 48.6983C149.452 48.6983 148.86 47.8199 148.86 45.7597V37.102H153.185V34.2424H148.86V30.1663H148.863Z" fill="white"/>
<path d="M162.075 33.8665C157.057 33.8665 153.555 37.6045 153.555 42.954C153.555 48.1423 156.946 51.7666 161.803 51.7666H161.835C165.941 51.7666 170.355 48.9133 170.355 42.6475C170.355 40.1007 169.566 37.911 168.069 36.3184C166.565 34.7133 164.491 33.8665 162.075 33.8665ZM161.971 36.6913C165.197 36.6913 166.666 39.829 166.666 42.7486C166.666 46.3349 164.662 48.9386 161.904 48.9386H161.869C159.15 48.9386 157.174 46.3792 157.174 42.8497C157.174 39.7847 158.659 36.6913 161.971 36.6913Z" fill="white"/>
<path d="M181.338 34.0308L181.123 33.977C180.806 33.8981 180.55 33.8665 180.23 33.8665C178.353 33.8665 176.671 34.9692 175.734 36.7482L175.63 34.2425H172.413L172.435 34.5426C172.53 35.9582 172.571 37.5508 172.571 39.6962L172.54 51.3874H176.127V42.2651C176.127 41.7691 176.162 41.2982 176.225 40.878C176.63 38.6883 178.112 37.2727 179.999 37.2727C180.366 37.2727 180.654 37.3011 180.962 37.3327L181.345 37.3738V34.0308H181.338Z" fill="white"/>
<path d="M189.403 33.8313C184.628 33.8313 181.294 37.6388 181.294 43.0894C181.294 48.3378 184.612 51.7314 189.744 51.7314C192.445 51.7314 194.323 51.1405 195.421 50.6445L195.637 50.5465L194.946 47.8797L194.649 47.9997C193.671 48.3979 192.372 48.8023 190.156 48.8023C188.598 48.8023 185.005 48.2904 184.786 43.614L196.362 43.6487L196.409 43.4212C196.482 43.0578 196.517 42.5681 196.517 41.9266C196.517 38.1918 194.652 33.8313 189.403 33.8313ZM189.162 36.555C190.254 36.555 191.141 36.8931 191.793 37.5567C192.825 38.6057 193.006 40.1477 193.028 40.8871H184.85C185.185 38.8206 186.48 36.555 189.162 36.555Z" fill="white"/>
<path d="M64.1908 11.5742C65.1913 11.4415 66.3564 11.3435 67.6292 11.3435C69.9405 11.3435 71.5869 11.808 72.6793 12.7212C73.8064 13.6343 74.4555 14.9456 74.4555 16.7562C74.4555 18.5825 73.8064 20.0771 72.6603 21.1072C71.4761 22.1531 69.5543 22.7187 67.129 22.7187C65.9638 22.7187 65.0203 22.6871 64.1876 22.586V11.5742H64.1908ZM65.8182 21.4927C66.2235 21.5591 66.8155 21.5591 67.4456 21.5591C70.8841 21.5749 72.7521 19.8307 72.7521 16.8099C72.7711 14.1367 71.1057 12.4905 67.7052 12.4905C66.8725 12.4905 66.2456 12.5569 65.8182 12.639V21.4927Z" fill="white"/>
<path d="M80.2205 22.8039C77.8174 22.8039 75.9304 21.2082 75.9304 18.6678C75.9304 15.9757 77.9092 14.3989 80.3693 14.3989C82.9402 14.3989 84.6785 16.0768 84.6785 18.5193C84.6785 21.5084 82.3672 22.8039 80.2395 22.8039H80.2205ZM80.2775 21.7075C81.8321 21.7075 82.9972 20.3962 82.9972 18.5667C82.9972 17.2048 82.2374 15.4954 80.3155 15.4954C78.4095 15.4954 77.5768 17.0911 77.5768 18.6172C77.5768 20.3772 78.6881 21.7075 80.2585 21.7075H80.2775Z" fill="white"/>
<path d="M87.2531 14.582L88.4563 18.6518C88.6969 19.5492 88.9375 20.396 89.1022 21.227H89.156C89.3586 20.4118 89.6562 19.5492 89.9507 18.6708L91.4103 14.5852H92.7781L94.1648 18.6044C94.4973 19.5524 94.7569 20.415 94.9596 21.2302H95.0134C95.1622 20.415 95.4028 19.5682 95.6973 18.6234L96.9732 14.5884H98.5816L95.6973 22.6268H94.225L92.8572 18.7909C92.5438 17.8777 92.2841 17.0814 92.0625 16.1335H92.0245C91.8029 17.0972 91.5243 17.944 91.2108 18.8067L89.7702 22.6268H88.2916L85.5909 14.5884H87.2531V14.582Z" fill="white"/>
<path d="M100.219 16.7593C100.219 15.9125 100.2 15.2489 100.146 14.5822H101.59L101.681 15.8935H101.719C102.163 15.1446 103.198 14.3989 104.677 14.3989C105.915 14.3989 107.84 15.0625 107.84 17.821V22.6207H106.212V17.9884C106.212 16.6929 105.674 15.5965 104.142 15.5965C103.087 15.5965 102.255 16.2758 101.96 17.0911C101.887 17.2743 101.849 17.5397 101.849 17.7736V22.6238H100.222V16.7593H100.219Z" fill="white"/>
<path d="M110.483 10.8284H112.111V22.6206H110.483V10.8284Z" fill="white"/>
<path d="M118.453 22.8039C116.05 22.8039 114.162 21.2082 114.162 18.6678C114.162 15.9757 116.141 14.3989 118.601 14.3989C121.172 14.3989 122.911 16.0768 122.911 18.5193C122.911 21.5084 120.599 22.8039 118.472 22.8039H118.453ZM118.51 21.7075C120.064 21.7075 121.229 20.3962 121.229 18.5667C121.229 17.2048 120.469 15.4954 118.548 15.4954C116.642 15.4954 115.809 17.0911 115.809 18.6172C115.809 20.3772 116.92 21.7075 118.491 21.7075H118.51Z" fill="white"/>
<path d="M131.269 20.6932C131.269 21.3915 131.307 22.0709 131.399 22.6207H129.939L129.79 21.6064H129.737C129.255 22.2383 128.274 22.8008 127.001 22.8008C125.19 22.8008 124.266 21.6538 124.266 20.491C124.266 18.5477 126.187 17.486 129.645 17.5018V17.3407C129.645 16.6771 129.442 15.4638 127.612 15.4796C126.76 15.4796 125.893 15.6944 125.263 16.0768L124.892 15.0972C125.633 14.6833 126.722 14.3989 127.853 14.3989C130.607 14.3989 131.272 16.0768 131.272 17.6883V20.6932H131.269ZM129.68 18.5193C127.903 18.4877 125.89 18.7689 125.89 20.3298C125.89 21.2936 126.593 21.7264 127.406 21.7264C128.59 21.7264 129.347 21.0629 129.607 20.3804C129.664 20.2319 129.683 20.0644 129.683 19.9159V18.5193H129.68Z" fill="white"/>
<path d="M141.61 10.8284V20.5447C141.61 21.2588 141.629 22.074 141.682 22.6206H140.223L140.15 21.2272H140.112C139.612 22.1246 138.538 22.8039 137.079 22.8039C134.913 22.8039 133.232 21.1608 133.232 18.7183C133.213 16.0262 135.081 14.3989 137.243 14.3989C138.63 14.3989 139.555 14.9803 139.944 15.6123H139.979V10.8284H141.61ZM139.982 17.8557C139.982 17.6566 139.963 17.4228 139.909 17.2238C139.669 16.3106 138.782 15.5459 137.56 15.5459C135.876 15.5459 134.878 16.873 134.878 18.6362C134.878 20.2793 135.784 21.6253 137.522 21.6253C138.614 21.6253 139.612 20.9618 139.906 19.8811C139.963 19.6821 139.979 19.483 139.979 19.2492V17.8557H139.982Z" fill="white"/>
<path d="M151.871 22.8039C149.468 22.8039 147.581 21.2082 147.581 18.6678C147.581 15.9757 149.56 14.3989 152.02 14.3989C154.591 14.3989 156.329 16.0768 156.329 18.5193C156.329 21.5084 154.018 22.8039 151.89 22.8039H151.871ZM151.928 21.7075C153.483 21.7075 154.645 20.3962 154.645 18.5667C154.645 17.2048 153.888 15.4954 151.963 15.4954C150.057 15.4954 149.227 17.0911 149.227 18.6172C149.227 20.3772 150.336 21.7075 151.909 21.7075H151.928Z" fill="white"/>
<path d="M158.384 16.7593C158.384 15.9125 158.365 15.2489 158.312 14.5822H159.755L159.847 15.8935H159.882C160.325 15.1446 161.361 14.3989 162.839 14.3989C164.077 14.3989 166.002 15.0625 166.002 17.821V22.6207H164.375V17.9884C164.375 16.6929 163.84 15.5965 162.304 15.5965C161.25 15.5965 160.417 16.2758 160.123 17.0911C160.05 17.2743 160.012 17.5397 160.012 17.7736V22.6238H158.384V16.7593Z" fill="white"/>
<path d="M174.528 12.6548V14.5822H176.859V15.6945H174.528V20.0297C174.528 21.025 174.842 21.5906 175.75 21.5906C176.194 21.5906 176.453 21.559 176.694 21.4927L176.767 22.6049C176.453 22.7029 175.953 22.804 175.323 22.804C174.566 22.804 173.955 22.5702 173.566 22.191C173.122 21.7423 172.939 21.0282 172.939 20.0803V15.6945H171.552V14.5822H172.939V13.1035L174.528 12.6548Z" fill="white"/>
<path d="M178.692 10.8284H180.319V15.8429H180.357C180.614 15.429 181.022 15.0467 181.522 14.8128C182.004 14.5474 182.574 14.3989 183.188 14.3989C184.388 14.3989 186.313 15.0625 186.313 17.8367V22.6206H184.682V18.0042C184.682 16.6929 184.147 15.6123 182.612 15.6123C181.557 15.6123 180.744 16.2758 180.43 17.0752C180.338 17.2743 180.319 17.4892 180.319 17.7736V22.6238H178.692V10.8284Z" fill="white"/>
<path d="M189.881 18.851C189.919 20.829 191.305 21.6411 192.933 21.6411C194.098 21.6411 194.82 21.4578 195.412 21.2429L195.706 22.273C195.133 22.5068 194.133 22.7881 192.711 22.7881C189.972 22.7881 188.31 21.1418 188.31 18.7341C188.31 16.2916 189.919 14.3831 192.528 14.3831C195.45 14.3831 196.207 16.6929 196.207 18.1716C196.207 18.4718 196.188 18.7025 196.153 18.8699L189.881 18.851ZM194.633 17.8051C194.652 16.8919 194.209 15.4289 192.395 15.4289C190.729 15.4289 190.026 16.7908 189.896 17.8051H194.633Z" fill="white"/>
</svg>
