<svg width="465" height="61" viewBox="0 0 465 61" fill="none" xmlns="http://www.w3.org/2000/svg">
<path d="M53.123 0H10C4.47715 0 0 4.47715 0 10V51C0 56.5228 4.47715 61 10 61H53.123C58.6459 61 63.123 56.5228 63.123 51V10C63.123 4.47715 58.6459 0 53.123 0Z" fill="#ED1C24"/>
<path fill-rule="evenodd" clip-rule="evenodd" d="M7.22551 20.6104C18.8303 20.0818 30.4367 19.1878 42.0679 19.4471C44.1184 19.4942 46.3682 19.9976 47.6561 21.6728C44.4461 24.018 40.5526 25.5955 36.9473 27.2926C35.7318 27.8583 34.1655 28.2001 33.5693 29.515C33.0884 30.3887 33.6319 31.2979 34.0766 32.0605C35.5589 34.3671 37.8252 36.0843 39.3783 38.3286C38.3605 41.6166 34.5279 42.9736 31.2717 42.9585L28.714 42.9214C22.2709 42.1941 15.701 40.1856 10.7452 36.0018C10.3268 36.6483 9.53131 37.4447 10.1209 38.2292C11.5324 39.9431 13.7246 40.8136 15.7487 41.6705C20.4279 43.4383 25.3672 44.6673 30.4021 44.94C31.2503 45.0192 36.7909 44.7599 36.7909 44.7599C39.0225 44.3188 41.3563 43.5965 42.8798 41.8658C44.153 40.3001 44.1612 38.0844 43.1697 36.3807C41.8834 34.2358 40.1162 32.3939 38.8809 30.212C40.2891 29.4257 41.6545 28.5452 43.1763 27.9644C46.7338 26.4188 50.3292 24.5753 53.6117 22.5516C54.8782 21.6627 54.6575 19.8595 54.1157 18.6288C53.4519 17.3409 52.2085 16.0193 50.5977 16.0681C44.8233 15.9014 39.0736 16.5732 33.3157 16.9537C24.3445 17.7163 15.3798 18.5463 6.45142 19.6945" fill="white"/>
<path d="M97.1125 56.2169V60.4461C97.1125 60.6127 97.0548 60.7457 96.9395 60.8467C96.8242 60.9478 96.6776 60.9983 96.4998 60.9983H95.3535V57.6664H77.2908V43.9822H79.2079V56.2152H85.1371V43.9822H87.0542V56.2152H93.0229V43.9822H94.9499V56.2152H97.1125V56.2169Z" fill="#636466"/>
<path d="M112.173 50.831C112.173 51.8563 112.005 52.7957 111.669 53.6527C111.333 54.5079 110.858 55.2454 110.246 55.8632C109.633 56.4794 108.897 56.9593 108.037 57.2994C107.177 57.6394 106.227 57.8112 105.186 57.8112C104.145 57.8112 103.196 57.6411 102.34 57.2994C101.484 56.9593 100.749 56.4794 100.136 55.8632C99.5237 55.2454 99.0493 54.5079 98.7133 53.6527C98.3773 52.7957 98.2094 51.8546 98.2094 50.831C98.2094 49.8057 98.3773 48.8662 98.7133 48.0093C99.0493 47.154 99.5237 46.4149 100.136 45.7953C100.749 45.1741 101.484 44.6926 102.34 44.3475C103.196 44.004 104.145 43.8323 105.186 43.8323C106.227 43.8323 107.177 44.004 108.037 44.3475C108.897 44.6909 109.633 45.1741 110.246 45.7953C110.858 46.4149 111.333 47.154 111.669 48.0093C112.005 48.8645 112.173 49.8057 112.173 50.831ZM110.206 50.831C110.206 49.9909 110.088 49.2366 109.85 48.5682C109.613 47.8998 109.277 47.3342 108.842 46.8728C108.408 46.4115 107.881 46.0563 107.261 45.8071C106.642 45.5596 105.95 45.4351 105.186 45.4351C104.428 45.4351 103.74 45.5596 103.121 45.8071C102.501 46.0563 101.973 46.4115 101.535 46.8728C101.097 47.3342 100.759 47.8998 100.522 48.5682C100.285 49.2366 100.166 49.9909 100.166 50.831C100.166 51.6711 100.285 52.4237 100.522 53.0887C100.759 53.7537 101.097 54.3177 101.535 54.779C101.973 55.2403 102.501 55.5939 103.121 55.8397C103.74 56.0838 104.428 56.2067 105.186 56.2067C105.95 56.2067 106.642 56.0838 107.261 55.8397C107.881 55.5939 108.408 55.242 108.842 54.779C109.277 54.3177 109.613 53.7537 109.85 53.0887C110.088 52.4237 110.206 51.6711 110.206 50.831Z" fill="#636466"/>
<path d="M127.567 56.2169V60.4461C127.567 60.6127 127.511 60.7457 127.399 60.8467C127.287 60.9478 127.139 60.9983 126.955 60.9983H125.818V57.6664H114.405V60.4444C114.405 60.611 114.347 60.744 114.232 60.8451C114.116 60.9461 113.97 60.9966 113.792 60.9966H112.646V56.2135H114.088C114.293 56.1175 114.497 55.9626 114.701 55.7505C114.905 55.5384 115.101 55.232 115.289 54.8329C115.477 54.4356 115.653 53.9339 115.818 53.3295C115.982 52.7251 116.132 51.9843 116.267 51.1088C116.402 50.235 116.519 49.2097 116.618 48.0396C116.717 46.8679 116.793 45.5159 116.845 43.9822H125.255V56.2152H127.567V56.2169ZM123.328 56.2169V45.4452H118.644C118.565 47.0059 118.453 48.3747 118.308 49.5515C118.163 50.73 117.992 51.752 117.794 52.6173C117.597 53.4827 117.376 54.2066 117.132 54.7892C116.888 55.3717 116.625 55.8482 116.342 56.2169H123.328Z" fill="#636466"/>
<path d="M138.586 56.1596L138.576 57.6681H129.85V43.9839H138.576V45.4924H131.767V50.0381H137.281V51.4894H131.767V56.1596H138.586Z" fill="#636466"/>
<path d="M152.735 43.9839V57.6681H150.818V51.4422H143.179V57.6681H141.264V43.9839H143.181V50.0852H150.82V43.9839H152.735Z" fill="#636466"/>
<path d="M167.825 43.9839V57.6681H165.908V51.4422H158.269V57.6681H156.352V43.9839H158.269V50.0852H165.908V43.9839H167.825Z" fill="#636466"/>
<path d="M182.933 57.6681H181.451C181.28 57.6681 181.141 57.626 181.036 57.5435C180.93 57.461 180.851 57.355 180.799 57.2287L179.474 53.9238H173.12L171.796 57.2287C171.757 57.3432 171.681 57.4442 171.569 57.5334C171.457 57.6227 171.315 57.6664 171.144 57.6664H169.672L175.334 43.9822H177.271L182.933 57.6681ZM178.941 52.587L176.717 47.0194C176.652 46.8544 176.582 46.6608 176.51 46.4419C176.437 46.223 176.368 45.989 176.302 45.7398C176.164 46.2567 176.022 46.686 175.877 47.0295L173.654 52.587H178.941Z" fill="#636466"/>
<path d="M199.416 45.5395H194.831V57.6665H192.923V45.5395H188.328V43.9839H199.416V45.5395Z" fill="#636466"/>
<path d="M212.064 43.9839L206.312 55.8819C206.134 56.2573 205.942 56.5688 205.734 56.8146C205.527 57.0587 205.304 57.254 205.067 57.3971C204.83 57.5402 204.573 57.6429 204.296 57.7018C204.02 57.7624 203.723 57.7927 203.407 57.7927C203.051 57.7927 202.778 57.7624 202.587 57.7018C202.396 57.6412 202.3 57.552 202.3 57.4308V56.2556H202.992C203.157 56.2556 203.321 56.2371 203.486 56.2034C203.651 56.1681 203.809 56.1058 203.96 56.0182C204.112 55.929 204.257 55.8095 204.395 55.6596C204.533 55.5115 204.659 55.3212 204.771 55.0922L205.462 53.6982L199.77 43.9873H201.559C201.73 43.9873 201.865 44.026 201.964 44.1051C202.063 44.1859 202.149 44.2886 202.221 44.4166L205.719 50.6223C205.963 51.0752 206.161 51.5331 206.312 51.9978C206.385 51.7688 206.465 51.5399 206.554 51.3092C206.643 51.0802 206.744 50.8513 206.856 50.6223L209.83 44.4166C209.883 44.3088 209.964 44.2095 210.072 44.1203C210.181 44.031 210.318 43.9873 210.482 43.9873H212.064V43.9839Z" fill="#636466"/>
<path d="M218.052 43.9839C218.948 43.9839 219.727 44.0849 220.389 44.2853C221.051 44.4856 221.599 44.7701 222.034 45.1405C222.469 45.5092 222.794 45.9554 223.008 46.4773C223.222 46.9992 223.329 47.5817 223.329 48.2249C223.329 48.8613 223.213 49.4438 222.983 49.9724C222.752 50.5011 222.415 50.9557 221.97 51.3378C221.525 51.72 220.975 52.018 220.32 52.2301C219.664 52.444 218.908 52.55 218.052 52.55H215.779V57.6681H213.872V43.9839H218.052ZM218.052 51.0786C218.599 51.0786 219.081 51.0078 219.5 50.8681C219.918 50.7284 220.27 50.5314 220.557 50.2805C220.843 50.0297 221.059 49.7283 221.204 49.3781C221.349 49.0279 221.422 48.6424 221.422 48.2215C221.422 47.3494 221.143 46.6692 220.587 46.1776C220.03 45.6877 219.185 45.4419 218.052 45.4419H215.779V51.0752H218.052V51.0786Z" fill="#636466"/>
<path d="M230.405 49.8748C231.268 49.8748 232.01 49.9657 232.638 50.1475C233.262 50.3294 233.778 50.5836 234.183 50.9119C234.588 51.2402 234.888 51.6291 235.084 52.082C235.278 52.5349 235.374 53.0265 235.374 53.5619C235.374 54.1915 235.265 54.7606 235.044 55.2657C234.822 55.7724 234.501 56.2034 234.076 56.5603C233.651 56.9156 233.127 57.19 232.509 57.3819C231.889 57.5722 231.185 57.6681 230.393 57.6681H225.739V43.9839H234.889V45.4452H227.646V49.8765H230.405V49.8748ZM230.395 56.1967C230.942 56.1967 231.411 56.1361 231.803 56.0165C232.195 55.8953 232.514 55.7286 232.761 55.5148C233.009 55.3027 233.19 55.0451 233.305 54.7421C233.42 54.439 233.478 54.1073 233.478 53.7454C233.478 53.3632 233.419 53.0231 233.305 52.7285C233.19 52.4322 233.007 52.1813 232.761 51.9742C232.514 51.7671 232.197 51.6106 231.808 51.5062C231.419 51.4001 230.951 51.3479 230.405 51.3479H227.648V56.1984H230.395V56.1967Z" fill="#636466"/>
<path d="M251.076 50.831C251.076 51.8563 250.908 52.7957 250.572 53.6527C250.236 54.5079 249.762 55.2454 249.149 55.8632C248.537 56.4794 247.8 56.9593 246.941 57.2994C246.081 57.6394 245.131 57.8112 244.09 57.8112C243.049 57.8112 242.1 57.6411 241.244 57.2994C240.387 56.9593 239.653 56.4794 239.04 55.8632C238.427 55.2454 237.953 54.5079 237.617 53.6527C237.281 52.7957 237.113 51.8546 237.113 50.831C237.113 49.8057 237.281 48.8662 237.617 48.0093C237.953 47.154 238.427 46.4149 239.04 45.7953C239.653 45.1741 240.387 44.6926 241.244 44.3475C242.098 44.004 243.049 43.8323 244.09 43.8323C245.131 43.8323 246.081 44.004 246.941 44.3475C247.8 44.6909 248.537 45.1741 249.149 45.7953C249.762 46.4149 250.236 47.154 250.572 48.0093C250.908 48.8645 251.076 49.8057 251.076 50.831ZM249.11 50.831C249.11 49.9909 248.991 49.2366 248.756 48.5682C248.518 47.8998 248.181 47.3342 247.748 46.8728C247.313 46.4115 246.784 46.0563 246.165 45.8071C245.546 45.5596 244.854 45.4351 244.09 45.4351C243.332 45.4351 242.644 45.5596 242.024 45.8071C241.405 46.0563 240.876 46.4115 240.438 46.8728C240 47.3342 239.663 47.8998 239.425 48.5682C239.188 49.2366 239.07 49.9909 239.07 50.831C239.07 51.6711 239.188 52.4237 239.425 53.0887C239.661 53.7537 240 54.3177 240.438 54.779C240.876 55.2403 241.405 55.5939 242.024 55.8397C242.644 56.0838 243.332 56.2067 244.09 56.2067C244.854 56.2067 245.546 56.0838 246.165 55.8397C246.784 55.5939 247.313 55.242 247.748 54.779C248.181 54.3177 248.518 53.7537 248.756 53.0887C248.991 52.4237 249.11 51.6711 249.11 50.831Z" fill="#636466"/>
<path d="M262.757 45.5395H258.172V57.6665H256.264V45.5395H251.671V43.9839H262.757V45.5395Z" fill="#636466"/>
<path d="M274.979 57.6681H273.498C273.327 57.6681 273.187 57.626 273.082 57.5435C272.976 57.461 272.897 57.355 272.845 57.2287L271.522 53.9238H265.168L263.844 57.2287C263.804 57.3432 263.728 57.4442 263.616 57.5334C263.504 57.6227 263.363 57.6664 263.191 57.6664H261.719L267.381 43.9822H269.318L274.979 57.6681ZM270.988 52.587L268.765 47.0194C268.697 46.8544 268.628 46.6608 268.557 46.4419C268.483 46.223 268.416 45.989 268.348 45.7398C268.21 46.2567 268.068 46.686 267.923 47.0295L265.7 52.587H270.988Z" fill="#636466"/>
<path d="M292.804 57.6681H290.879V45.4452H283.804V57.6681H281.886V43.9839H292.806V57.6681H292.804Z" fill="#636466"/>
<path d="M300.603 43.9839C301.499 43.9839 302.278 44.0849 302.94 44.2853C303.603 44.4856 304.151 44.7701 304.586 45.1405C305.021 45.5092 305.345 45.9554 305.559 46.4773C305.773 46.9992 305.88 47.5817 305.88 48.2249C305.88 48.8613 305.765 49.4438 305.534 49.9724C305.304 50.5011 304.966 50.9557 304.522 51.3378C304.077 51.72 303.527 52.018 302.871 52.2301C302.216 52.444 301.461 52.55 300.605 52.55H298.33V57.6681H296.423V43.9839H300.603ZM300.603 51.0786C301.148 51.0786 301.631 51.0078 302.051 50.8681C302.469 50.7284 302.822 50.5314 303.108 50.2805C303.395 50.0297 303.611 49.7283 303.756 49.3781C303.901 49.0279 303.973 48.6424 303.973 48.2215C303.973 47.3494 303.695 46.6692 303.138 46.1776C302.581 45.6877 301.736 45.4419 300.603 45.4419H298.329V51.0752H300.603V51.0786Z" fill="#636466"/>
<path d="M321.374 50.831C321.374 51.8563 321.206 52.7957 320.87 53.6527C320.534 54.5079 320.059 55.2454 319.447 55.8632C318.834 56.4794 318.098 56.9593 317.236 57.2994C316.377 57.6394 315.428 57.8112 314.385 57.8112C313.344 57.8112 312.396 57.6411 311.539 57.2994C310.683 56.9593 309.948 56.4794 309.336 55.8632C308.725 55.2454 308.25 54.5079 307.913 53.6527C307.577 52.7957 307.409 51.8546 307.409 50.831C307.409 49.8057 307.577 48.8662 307.913 48.0093C308.25 47.154 308.725 46.4149 309.336 45.7953C309.95 45.1741 310.683 44.6926 311.539 44.3475C312.396 44.004 313.344 43.8323 314.385 43.8323C315.428 43.8323 316.377 44.004 317.236 44.3475C318.098 44.6909 318.834 45.1741 319.447 45.7953C320.059 46.4149 320.534 47.154 320.87 48.0093C321.206 48.8645 321.374 49.8057 321.374 50.831ZM319.407 50.831C319.407 49.9909 319.289 49.2366 319.051 48.5682C318.814 47.8998 318.478 47.3342 318.043 46.8728C317.609 46.4115 317.082 46.0563 316.462 45.8071C315.843 45.5596 315.151 45.4351 314.387 45.4351C313.629 45.4351 312.941 45.5596 312.323 45.8071C311.702 46.0563 311.175 46.4115 310.737 46.8728C310.298 47.3342 309.962 47.8998 309.724 48.5682C309.487 49.2366 309.369 49.9909 309.369 50.831C309.369 51.6711 309.487 52.4237 309.724 53.0887C309.962 53.7537 310.299 54.3177 310.737 54.779C311.175 55.2403 311.702 55.5939 312.323 55.8397C312.941 56.0838 313.629 56.2067 314.387 56.2067C315.153 56.2067 315.843 56.0838 316.462 55.8397C317.082 55.5939 317.609 55.242 318.043 54.779C318.478 54.3177 318.814 53.7537 319.051 53.0887C319.289 52.4237 319.407 51.6711 319.407 50.831Z" fill="#636466"/>
<path d="M338.695 57.6684H336.788V51.7758H334.861C334.683 51.7758 334.517 51.791 334.364 51.8196C334.209 51.8482 334.057 51.9004 333.914 51.9762C333.769 52.0536 333.624 52.1563 333.481 52.2876C333.334 52.4173 333.191 52.5856 333.046 52.7894L329.971 57.0101C329.854 57.2138 329.691 57.3738 329.487 57.4933C329.284 57.6112 329.042 57.6701 328.767 57.6701H327.324L330.991 52.6749C331.386 52.1142 331.85 51.7169 332.384 51.4812C331.817 51.3802 331.323 51.2202 330.903 51.0047C330.482 50.7876 330.129 50.5249 329.851 50.2168C329.571 49.907 329.363 49.5569 329.223 49.1612C329.085 48.7673 329.016 48.3396 329.016 47.8817C329.016 47.2958 329.126 46.7638 329.345 46.2873C329.566 45.8092 329.889 45.4001 330.314 45.06C330.739 44.7199 331.261 44.4556 331.875 44.267C332.491 44.0801 333.194 43.9858 333.985 43.9858H338.697V57.6684H338.695ZM336.788 50.3145V45.4539H333.982C333.435 45.4539 332.967 45.5112 332.578 45.6273C332.19 45.7418 331.87 45.9051 331.62 46.119C331.369 46.3311 331.187 46.587 331.071 46.8833C330.956 47.1796 330.9 47.5079 330.9 47.8716C330.9 48.2538 330.958 48.5972 331.071 48.8986C331.187 49.2016 331.369 49.4575 331.615 49.6663C331.862 49.8767 332.181 50.0384 332.572 50.1495C332.965 50.2606 333.433 50.3162 333.98 50.3162H336.788V50.3145Z" fill="#636466"/>
<path d="M352.253 54.8413C352.359 54.8413 352.451 54.8834 352.53 54.9659L353.291 55.7589C352.711 56.4088 352.008 56.9155 351.181 57.2775C350.354 57.6395 349.354 57.8213 348.183 57.8213C347.169 57.8213 346.247 57.6512 345.416 57.3112C344.586 56.9711 343.878 56.4929 343.292 55.8784C342.707 55.2639 342.251 54.5265 341.93 53.6679C341.607 52.8092 341.446 51.863 341.446 50.8327C341.446 49.8006 341.614 48.8561 341.95 47.9958C342.286 47.1372 342.758 46.3981 343.368 45.7819C343.975 45.164 344.705 44.6859 345.556 44.3441C346.405 44.004 347.343 43.834 348.371 43.834C349.379 43.834 350.269 43.9889 351.039 44.302C351.81 44.6135 352.489 45.0378 353.075 45.5715L352.443 46.4217C352.403 46.4856 352.352 46.5378 352.288 46.5799C352.227 46.622 352.141 46.6422 352.037 46.6422C351.919 46.6422 351.774 46.5799 351.603 46.4553C351.431 46.3308 351.207 46.1927 350.931 46.0395C350.656 45.8863 350.308 45.7482 349.895 45.6236C349.478 45.4991 348.969 45.4385 348.363 45.4385C347.632 45.4385 346.963 45.5614 346.357 45.8055C345.751 46.0513 345.229 46.4048 344.791 46.8695C344.353 47.3342 344.012 47.9016 343.768 48.5699C343.526 49.2383 343.402 49.9926 343.402 50.8327C343.402 51.6863 343.529 52.4456 343.783 53.1156C344.036 53.784 344.382 54.348 344.82 54.8093C345.258 55.2706 345.776 55.6225 346.372 55.865C346.968 56.1057 347.612 56.2269 348.304 56.2269C348.725 56.2269 349.106 56.2034 349.445 56.1562C349.784 56.1074 350.097 56.0333 350.384 55.9323C350.67 55.8313 350.937 55.7016 351.184 55.5451C351.431 55.3902 351.677 55.2033 351.921 54.9861C352.029 54.8885 352.141 54.8413 352.253 54.8413Z" fill="#636466"/>
<path d="M366.986 43.9839V57.6681H365.069V51.4422H357.43V57.6681H355.513V43.9839H357.43V50.0852H365.069V43.9839H366.986Z" fill="#636466"/>
<path d="M382.095 57.6681H380.613C380.442 57.6681 380.303 57.626 380.198 57.5435C380.093 57.461 380.013 57.355 379.961 57.2287L378.637 53.9238H372.282L370.958 57.2287C370.919 57.3432 370.843 57.4442 370.731 57.5334C370.619 57.6227 370.477 57.6664 370.306 57.6664H368.834L374.496 43.9822H376.433L382.095 57.6681ZM378.103 52.587L375.881 47.0194C375.814 46.8544 375.744 46.6608 375.672 46.4419C375.599 46.223 375.53 45.989 375.464 45.7398C375.326 46.2567 375.184 46.686 375.04 47.0295L372.816 52.587H378.103Z" fill="#636466"/>
<path d="M398.577 45.5395H393.992V57.6665H392.084V45.5395H387.491V43.9839H398.577V45.5395Z" fill="#636466"/>
<path d="M410.8 57.6681H409.318C409.147 57.6681 409.009 57.626 408.903 57.5435C408.798 57.461 408.717 57.355 408.666 57.2287L407.342 53.9238H400.988L399.663 57.2287C399.624 57.3432 399.548 57.4442 399.438 57.5334C399.326 57.6227 399.184 57.6664 399.013 57.6664H397.54L403.203 43.9822H405.14L410.8 57.6681ZM406.808 52.587L404.585 47.0194C404.519 46.8544 404.45 46.6608 404.377 46.4419C404.305 46.223 404.236 45.989 404.17 45.7398C404.031 46.2567 403.89 46.686 403.745 47.0295L401.521 52.587H406.808Z" fill="#636466"/>
<path d="M416.888 45.2634C417.422 44.8054 418.041 44.4552 418.744 44.2128C419.449 43.9704 420.25 43.8508 421.146 43.8508C421.877 43.8508 422.534 43.9367 423.117 44.1084C423.7 44.2801 424.196 44.5226 424.604 44.834C425.013 45.1455 425.327 45.5159 425.548 45.9419C425.769 46.3678 425.879 46.8358 425.879 47.346C425.879 48.0329 425.701 48.6373 425.35 49.1592C424.998 49.6811 424.504 50.0852 423.863 50.3714C424.225 50.5179 424.555 50.698 424.851 50.9118C425.149 51.1256 425.403 51.3647 425.617 51.6324C425.831 51.9001 425.996 52.193 426.111 52.5112C426.227 52.8294 426.284 53.1645 426.284 53.5147C426.284 54.1123 426.169 54.673 425.938 55.1949C425.708 55.7168 425.373 56.1697 424.935 56.5552C424.497 56.9408 423.959 57.2438 423.32 57.4677C422.681 57.69 421.953 57.8011 421.136 57.8011C420.121 57.8011 419.21 57.6395 418.4 57.3179C417.59 56.9963 416.895 56.562 416.315 56.0148L416.868 55.136C416.921 55.0669 416.987 55.008 417.066 54.9592C417.145 54.912 417.231 54.8885 417.323 54.8885C417.463 54.8885 417.626 54.9592 417.817 55.104C418.008 55.2471 418.252 55.4053 418.548 55.5771C418.846 55.7488 419.205 55.9071 419.632 56.0502C420.057 56.1933 420.576 56.2657 421.188 56.2657C421.709 56.2657 422.175 56.205 422.587 56.0838C422.998 55.9643 423.344 55.7892 423.624 55.5585C423.904 55.3296 424.118 55.0484 424.265 54.7184C424.413 54.3868 424.487 54.0147 424.487 53.6005C424.487 53.2436 424.417 52.917 424.277 52.6173C424.135 52.3176 423.929 52.0617 423.659 51.8479C423.389 51.6358 423.059 51.4691 422.671 51.3512C422.282 51.2334 421.844 51.1745 421.356 51.1745H419.42V49.6559H421.277C421.678 49.6559 422.053 49.6087 422.399 49.5128C422.745 49.4185 423.041 49.2771 423.288 49.0935C423.535 48.9083 423.73 48.6827 423.871 48.4151C424.013 48.1474 424.082 47.8426 424.082 47.4975C424.082 47.186 424.016 46.8998 423.885 46.6389C423.754 46.3779 423.563 46.1523 423.311 45.9654C423.061 45.7769 422.755 45.6338 422.392 45.5311C422.032 45.43 421.618 45.3795 421.159 45.3795C420.625 45.3795 420.171 45.4334 419.795 45.5412C419.42 45.6506 419.103 45.7684 418.846 45.8998C418.589 46.0311 418.38 46.1506 418.219 46.2584C418.056 46.3661 417.917 46.42 417.799 46.42C417.692 46.42 417.608 46.3981 417.54 46.3527C417.474 46.3089 417.413 46.2348 417.354 46.1338L416.888 45.2634Z" fill="#636466"/>
<path d="M439.467 43.9839L433.716 55.8819C433.538 56.2573 433.345 56.5688 433.138 56.8146C432.928 57.0587 432.708 57.254 432.471 57.3971C432.233 57.5402 431.976 57.6429 431.7 57.7018C431.423 57.7624 431.125 57.7927 430.81 57.7927C430.455 57.7927 430.18 57.7624 429.988 57.7018C429.797 57.6412 429.702 57.552 429.702 57.4308V56.2556H430.394C430.558 56.2556 430.723 56.2371 430.888 56.2034C431.052 56.1681 431.211 56.1058 431.362 56.0182C431.514 55.929 431.659 55.8095 431.797 55.6596C431.935 55.5115 432.06 55.3212 432.172 55.0922L432.864 53.6982L427.174 43.9873H428.962C429.134 43.9873 429.269 44.026 429.368 44.1051C429.466 44.1859 429.552 44.2886 429.624 44.4166L433.123 50.6223C433.365 51.0752 433.564 51.5331 433.716 51.9978C433.788 51.7688 433.869 51.5399 433.958 51.3092C434.047 51.0802 434.146 50.8513 434.259 50.6223L437.232 44.4166C437.285 44.3088 437.365 44.2095 437.474 44.1203C437.581 44.031 437.72 43.9873 437.884 43.9873H439.467V43.9839Z" fill="#636466"/>
<path d="M445.94 49.8748C446.801 49.8748 447.547 49.9657 448.173 50.1475C448.799 50.3294 449.314 50.5836 449.72 50.9119C450.125 51.2402 450.424 51.6291 450.619 52.082C450.813 52.5349 450.91 53.0265 450.91 53.5619C450.91 54.1915 450.8 54.7606 450.579 55.2657C450.36 55.7724 450.036 56.2034 449.611 56.5603C449.186 56.9156 448.664 57.19 448.045 57.3819C447.425 57.5722 446.72 57.6681 445.93 57.6681H441.274V43.9839H450.424V45.4452H443.181V49.8765H445.94V49.8748ZM445.93 56.1967C446.477 56.1967 446.944 56.1361 447.338 56.0165C447.73 55.8953 448.049 55.7286 448.296 55.5148C448.544 55.3027 448.725 55.0451 448.84 54.7421C448.955 54.439 449.013 54.1073 449.013 53.7454C449.013 53.3632 448.955 53.0231 448.84 52.7285C448.725 52.4322 448.544 52.1813 448.296 51.9742C448.049 51.7671 447.73 51.6106 447.341 51.5062C446.953 51.4001 446.486 51.3479 445.94 51.3479H443.183V56.1984H445.93V56.1967Z" fill="#636466"/>
<path d="M465 43.9839V57.6681H463.083V47.9471C463.083 47.6743 463.088 47.3881 463.103 47.0935C463.116 46.7972 463.146 46.484 463.192 46.1524C463.08 46.4386 462.961 46.7063 462.838 46.9554C462.713 47.2029 462.584 47.4201 462.452 47.6053L455.812 57.0873C455.72 57.2338 455.601 57.3685 455.456 57.488C455.311 57.6092 455.143 57.6698 454.952 57.6698H453.529V43.9856H455.446V53.7167C455.446 53.9895 455.44 54.2757 455.426 54.5703C455.415 54.8666 455.383 55.1832 455.337 55.5199C455.449 55.2269 455.57 54.9559 455.698 54.7084C455.827 54.4609 455.953 54.2403 456.077 54.0501L462.718 44.5681C462.81 44.4216 462.928 44.2886 463.075 44.1674C463.22 44.0479 463.388 43.9873 463.579 43.9873H465V43.9839Z" fill="#636466"/>
<path d="M101.54 4.79161C100.112 3.38917 98.3724 2.29147 96.3697 1.52712C94.3735 0.766133 92.1369 0.378906 89.7256 0.378906H77.2908V32.3352H89.7256C92.1385 32.3352 94.3735 31.9497 96.3697 31.187C98.3708 30.4227 100.112 29.3283 101.538 27.9343C102.966 26.5403 104.086 24.8415 104.868 22.8852C105.649 20.9339 106.044 18.7419 106.044 16.368C106.044 13.9941 105.649 11.8004 104.868 9.85081C104.088 7.89447 102.968 6.19236 101.54 4.79161ZM89.7256 28.234H82.3701V4.48014H89.7256C91.4188 4.48014 92.9719 4.7512 94.3389 5.2849C95.701 5.81692 96.8736 6.59642 97.8272 7.60153C98.7842 8.61 99.5352 9.86259 100.059 11.3256C100.586 12.7971 100.853 14.4942 100.853 16.368C100.853 18.2418 100.586 19.9389 100.059 21.4104C99.5352 22.8734 98.7842 24.1226 97.8272 25.1244C96.8736 26.1228 95.6993 26.8989 94.3389 27.4309C92.9719 27.9646 91.4188 28.234 89.7256 28.234Z" fill="#636466"/>
<path d="M116.73 18.2113H129.335V14.2195H116.73V4.50179H132.295V0.378662H111.649V32.335H132.293L132.319 28.2118H116.73V18.2113Z" fill="#636466"/>
<path d="M160.129 22.8732C160.129 23.1981 160.14 23.5399 160.162 23.9002L142.135 1.22551C142.002 1.06557 141.878 0.934248 141.761 0.829865C141.631 0.713697 141.498 0.6211 141.363 0.55544C141.224 0.489779 141.07 0.442639 140.903 0.415701C140.752 0.390447 140.567 0.378662 140.348 0.378662H137.741V32.335H142.278V9.70914C142.278 9.4061 142.27 9.08116 142.255 8.73434L160.292 31.4427C160.552 31.7609 160.814 31.9848 161.094 32.1228C161.375 32.2643 161.721 32.335 162.123 32.335H164.663V0.378662H160.125V22.8732H160.129Z" fill="#636466"/>
<path d="M194.824 0.378662H168.78V4.61122H179.285V32.335H184.343V4.61122H194.824V0.378662Z" fill="#636466"/>
<path d="M204.812 0.378662L191.59 32.335H195.493C195.951 32.335 196.345 32.207 196.663 31.9528C196.969 31.7087 197.18 31.4225 197.285 31.116L200.227 23.7773H214.274L217.216 31.1194C217.357 31.4629 217.575 31.7508 217.861 31.9764C218.164 32.2138 218.558 32.335 219.031 32.335H222.934L209.71 0.378662H204.812ZM207.261 5.99177C207.309 6.14329 207.357 6.29313 207.405 6.43792C207.573 6.94636 207.732 7.3942 207.885 7.77806L212.785 20.0464H201.717L206.614 7.805C206.831 7.28982 207.049 6.68204 207.261 5.99177Z" fill="#636466"/>
<path d="M231.397 0.378662H226.34V32.335H245.403V28.1041H231.397V0.378662Z" fill="#636466"/>
<path d="M281.821 25.6158C281.277 26.0973 280.727 26.5149 280.182 26.86C279.643 27.2001 279.05 27.4863 278.423 27.7102C277.797 27.9325 277.099 28.0991 276.346 28.2052C275.592 28.3113 274.73 28.3651 273.788 28.3651C272.26 28.3651 270.819 28.0958 269.508 27.5621C268.198 27.0301 267.045 26.2472 266.082 25.232C265.117 24.2134 264.343 22.9473 263.783 21.4691C263.219 19.9859 262.934 18.2703 262.934 16.3679C262.934 14.4923 263.208 12.7885 263.75 11.3053C264.287 9.82877 265.051 8.55934 266.016 7.53403C266.98 6.51377 268.144 5.72248 269.473 5.18373C270.81 4.6433 272.309 4.36887 273.927 4.36887C275.269 4.36887 276.412 4.50693 277.324 4.77967C278.245 5.05578 279.019 5.36556 279.627 5.70059C280.246 6.04236 280.75 6.35383 281.126 6.62657C281.987 7.25119 282.674 7.20236 283.102 6.91952C283.286 6.7983 283.438 6.64172 283.538 6.47842L285.162 4.29648L284.94 4.09445C283.575 2.85027 281.972 1.85021 280.182 1.12458C278.385 0.397272 276.288 0.0285645 273.948 0.0285645C271.563 0.0285645 269.353 0.430944 267.375 1.22223C265.397 2.01521 263.674 3.14658 262.253 4.58606C260.835 6.02385 259.718 7.76637 258.936 9.76479C258.157 11.7582 257.761 13.9805 257.761 16.3679C257.761 18.7552 258.142 20.9758 258.891 22.9659C259.639 24.9609 260.713 26.7001 262.08 28.1328C263.445 29.5655 265.12 30.6952 267.057 31.4899C268.989 32.2829 271.163 32.6836 273.518 32.6836C276.237 32.6836 278.591 32.2559 280.52 31.4091C282.448 30.5622 284.112 29.3652 285.462 27.8516L285.666 27.6227L283.716 25.5906C283.211 25.0704 282.47 25.0636 281.821 25.6158Z" fill="#636466"/>
<path d="M303.887 0.378662H298.989L285.767 32.335H289.669C290.128 32.335 290.522 32.207 290.84 31.9528C291.146 31.7104 291.357 31.4241 291.462 31.116L294.406 23.7773H308.453L311.395 31.1177C311.535 31.4612 311.752 31.7491 312.038 31.9764C312.342 32.2138 312.735 32.335 313.21 32.335H317.111L303.975 0.590795L303.887 0.378662ZM301.438 5.99345C301.486 6.14497 301.534 6.29481 301.582 6.4396C301.75 6.94805 301.911 7.3942 302.063 7.77974L306.964 20.0481H295.895L300.793 7.80668C301.009 7.2915 301.224 6.68372 301.438 5.99345Z" fill="#636466"/>
<path d="M334.719 18.3897C335.706 18.1187 336.613 17.7584 337.427 17.3156C338.443 16.76 339.318 16.0782 340.026 15.2886C340.739 14.4922 341.289 13.5864 341.66 12.5965C342.034 11.6032 342.223 10.5206 342.223 9.38082C342.223 8.02047 341.979 6.76788 341.497 5.65839C341.008 4.54217 340.247 3.57578 339.235 2.78786C338.229 2.00499 336.944 1.40058 335.416 0.989782C333.901 0.584035 332.084 0.376953 330.014 0.376953H320.517V32.3333H325.574V19.2787H328.546C329.24 19.2787 329.582 19.3814 329.747 19.4672C329.992 19.5935 330.23 19.8141 330.455 20.1222L338.845 31.276C339.287 31.978 339.98 32.3333 340.906 32.3333H345.479L335.635 19.3864C335.363 19.0009 335.057 18.6675 334.719 18.3897ZM325.574 4.39233H330.014C332.453 4.39233 334.296 4.8469 335.493 5.74089C336.679 6.62814 337.256 7.91946 337.256 9.68723C337.256 10.5576 337.098 11.3574 336.788 12.0661C336.477 12.7733 336.011 13.3878 335.4 13.8962C334.785 14.4097 334.006 14.8138 333.082 15.0966C332.15 15.3828 331.058 15.5293 329.834 15.5293H325.574V4.39233Z" fill="#636466"/>
<path d="M353.902 18.2113H366.506V14.2195H353.902V4.50179H369.466V0.378662H348.822V32.335H369.464L369.491 28.2118H353.902V18.2113Z" fill="#636466"/>
<path d="M398.924 0.378662H394.025L380.802 32.335H384.706C385.165 32.335 385.559 32.207 385.877 31.9528C386.183 31.7087 386.396 31.4225 386.499 31.116L389.441 23.7773H403.488L406.43 31.1177C406.57 31.4612 406.789 31.7491 407.075 31.9764C407.379 32.2138 407.772 32.335 408.245 32.335H412.148L399.013 0.590795L398.924 0.378662ZM396.474 5.99177C396.521 6.14497 396.569 6.29481 396.617 6.4396C396.787 6.94805 396.945 7.3942 397.096 7.77974L401.998 20.0481H390.927L395.825 7.80668C396.044 7.2915 396.26 6.68372 396.474 5.99177Z" fill="#636466"/>
<path d="M434.793 3.10269C433.763 2.23059 432.456 1.55042 430.906 1.0807C429.366 0.61434 427.533 0.376953 425.459 0.376953H415.554V32.3333H420.612V20.6323H425.459C427.445 20.6323 429.226 20.3797 430.754 19.8831C432.291 19.3831 433.602 18.6726 434.648 17.7735C435.697 16.8728 436.507 15.7818 437.054 14.5309C437.596 13.2884 437.871 11.8995 437.871 10.4044C437.871 8.89931 437.616 7.51371 437.113 6.28637C436.604 5.0523 435.824 3.97985 434.793 3.10269ZM425.458 16.5984H420.61V4.39233H425.458C427.946 4.39233 429.817 4.92771 431.016 5.98501C432.207 7.03389 432.811 8.52218 432.811 10.4078C432.811 11.3203 432.653 12.1672 432.339 12.9248C432.029 13.6723 431.561 14.3255 430.949 14.8626C430.329 15.4047 429.557 15.834 428.651 16.1371C427.737 16.4435 426.662 16.5984 425.458 16.5984Z" fill="#636466"/>
<path d="M464.241 6.28976C463.732 5.05232 462.952 3.97987 461.921 3.1044C460.896 2.2323 459.587 1.55213 458.034 1.0824C456.494 0.616049 454.662 0.378662 452.587 0.378662H442.682V32.335H447.74V20.634H452.587C454.573 20.634 456.355 20.3814 457.882 19.8848C459.419 19.3848 460.728 18.676 461.776 17.7752C462.828 16.8712 463.635 15.7802 464.18 14.5326C464.724 13.2885 464.999 11.8995 464.999 10.4062C465.001 8.90439 464.745 7.5171 464.241 6.28976ZM452.589 16.5984H447.742V4.39235H452.589C455.077 4.39235 456.947 4.92773 458.149 5.98503C459.34 7.0356 459.944 8.52389 459.944 10.4078C459.944 11.317 459.786 12.1638 459.472 12.9248C459.162 13.674 458.694 14.3256 458.083 14.8626C457.464 15.4047 456.691 15.8341 455.784 16.1371C454.868 16.4435 453.793 16.5984 452.589 16.5984Z" fill="#636466"/>
</svg>
